{
	"patcher" : 	{
		"fileversion" : 1,
		"appversion" : 		{
			"major" : 8,
			"minor" : 2,
			"revision" : 2,
			"architecture" : "x64",
			"modernui" : 1
		}
,
		"classnamespace" : "box",
		"rect" : [ 42.0, 85.0, 1012.0, 1761.0 ],
		"bglocked" : 0,
		"openinpresentation" : 0,
		"default_fontsize" : 13.0,
		"default_fontface" : 0,
		"default_fontname" : "Apple SD Gothic Neo",
		"gridonopen" : 1,
		"gridsize" : [ 15.0, 15.0 ],
		"gridsnaponopen" : 1,
		"objectsnaponopen" : 1,
		"statusbarvisible" : 2,
		"toolbarvisible" : 1,
		"lefttoolbarpinned" : 0,
		"toptoolbarpinned" : 0,
		"righttoolbarpinned" : 0,
		"bottomtoolbarpinned" : 0,
		"toolbars_unpinned_last_save" : 0,
		"tallnewobj" : 0,
		"boxanimatetime" : 200,
		"enablehscroll" : 1,
		"enablevscroll" : 1,
		"devicewidth" : 0.0,
		"description" : "",
		"digest" : "",
		"tags" : "",
		"style" : "matrix",
		"subpatcher_template" : "default_template",
		"assistshowspatchername" : 0,
		"boxes" : [ 			{
				"box" : 				{
					"format" : 6,
					"id" : "obj-30",
					"maxclass" : "flonum",
					"numinlets" : 1,
					"numoutlets" : 2,
					"outlettype" : [ "", "bang" ],
					"parameter_enable" : 0,
					"patching_rect" : [ 439.0, 1124.123456001281738, 50.0, 24.0 ]
				}

			}
, 			{
				"box" : 				{
					"format" : 6,
					"id" : "obj-31",
					"maxclass" : "flonum",
					"numinlets" : 1,
					"numoutlets" : 2,
					"outlettype" : [ "", "bang" ],
					"parameter_enable" : 0,
					"patching_rect" : [ 379.0, 1130.0, 50.0, 24.0 ]
				}

			}
, 			{
				"box" : 				{
					"format" : 6,
					"id" : "obj-32",
					"maxclass" : "flonum",
					"numinlets" : 1,
					"numoutlets" : 2,
					"outlettype" : [ "", "bang" ],
					"parameter_enable" : 0,
					"patching_rect" : [ 300.743598699569702, 1111.0, 50.0, 24.0 ]
				}

			}
, 			{
				"box" : 				{
					"format" : 6,
					"id" : "obj-33",
					"maxclass" : "flonum",
					"numinlets" : 1,
					"numoutlets" : 2,
					"outlettype" : [ "", "bang" ],
					"parameter_enable" : 0,
					"patching_rect" : [ 208.0, 1100.123456001281738, 50.0, 24.0 ]
				}

			}
, 			{
				"box" : 				{
					"id" : "obj-28",
					"maxclass" : "newobj",
					"numinlets" : 5,
					"numoutlets" : 2,
					"outlettype" : [ "signal", "signal" ],
					"patching_rect" : [ 147.0, 1156.0, 100.0, 24.0 ],
					"text" : "yafr2"
				}

			}
, 			{
				"box" : 				{
					"id" : "obj-27",
					"maxclass" : "newobj",
					"numinlets" : 5,
					"numoutlets" : 2,
					"outlettype" : [ "signal", "signal" ],
					"patching_rect" : [ 28.836750030517578, 1156.0, 100.0, 24.0 ],
					"text" : "yafr2"
				}

			}
, 			{
				"box" : 				{
					"id" : "obj-26",
					"maxclass" : "newobj",
					"numinlets" : 2,
					"numoutlets" : 1,
					"outlettype" : [ "signal" ],
					"patching_rect" : [ 973.022096004486116, 768.081968011856134, 100.0, 24.0 ],
					"text" : "*~ 12."
				}

			}
, 			{
				"box" : 				{
					"id" : "obj-24",
					"maxclass" : "newobj",
					"numinlets" : 2,
					"numoutlets" : 1,
					"outlettype" : [ "signal" ],
					"patching_rect" : [ 922.219624009132417, 735.798016014099176, 100.0, 24.0 ],
					"text" : "*~ 12."
				}

			}
, 			{
				"box" : 				{
					"format" : 6,
					"id" : "obj-22",
					"maxclass" : "flonum",
					"numinlets" : 1,
					"numoutlets" : 2,
					"outlettype" : [ "", "bang" ],
					"parameter_enable" : 0,
					"patching_rect" : [ 859.0, 1182.123456001281738, 50.0, 24.0 ]
				}

			}
, 			{
				"box" : 				{
					"format" : 6,
					"id" : "obj-20",
					"maxclass" : "flonum",
					"numinlets" : 1,
					"numoutlets" : 2,
					"outlettype" : [ "", "bang" ],
					"parameter_enable" : 0,
					"patching_rect" : [ 799.0, 1188.0, 50.0, 24.0 ]
				}

			}
, 			{
				"box" : 				{
					"format" : 6,
					"id" : "obj-16",
					"maxclass" : "flonum",
					"numinlets" : 1,
					"numoutlets" : 2,
					"outlettype" : [ "", "bang" ],
					"parameter_enable" : 0,
					"patching_rect" : [ 744.743598699569702, 1188.0, 50.0, 24.0 ]
				}

			}
, 			{
				"box" : 				{
					"format" : 6,
					"id" : "obj-12",
					"maxclass" : "flonum",
					"numinlets" : 1,
					"numoutlets" : 2,
					"outlettype" : [ "", "bang" ],
					"parameter_enable" : 0,
					"patching_rect" : [ 674.0, 1166.123456001281738, 50.0, 24.0 ]
				}

			}
, 			{
				"box" : 				{
					"id" : "obj-5",
					"maxclass" : "newobj",
					"numinlets" : 5,
					"numoutlets" : 2,
					"outlettype" : [ "signal", "signal" ],
					"patching_rect" : [ 591.0, 1240.0, 100.0, 24.0 ],
					"text" : "yafr2"
				}

			}
, 			{
				"box" : 				{
					"id" : "obj-1",
					"maxclass" : "newobj",
					"numinlets" : 5,
					"numoutlets" : 2,
					"outlettype" : [ "signal", "signal" ],
					"patching_rect" : [ 484.0, 1240.0, 100.0, 24.0 ],
					"text" : "yafr2"
				}

			}
, 			{
				"box" : 				{
					"autosave" : 1,
					"bgmode" : 0,
					"border" : 0,
					"clickthrough" : 0,
					"id" : "obj-9",
					"maxclass" : "newobj",
					"numinlets" : 2,
					"numoutlets" : 8,
					"offset" : [ 0.0, 0.0 ],
					"outlettype" : [ "signal", "signal", "", "list", "int", "", "", "" ],
					"patching_rect" : [ -32.0, 977.0, 607.0, 140.0 ],
					"save" : [ "#N", "vst~", "loaduniqueid", 0, "C74_VST:/Crystallizer", ";" ],
					"saved_attribute_attributes" : 					{
						"valueof" : 						{
							"parameter_invisible" : 1,
							"parameter_longname" : "vst~[1]",
							"parameter_shortname" : "vst~[1]",
							"parameter_type" : 3
						}

					}
,
					"saved_object_attributes" : 					{
						"parameter_enable" : 1,
						"parameter_mappable" : 0
					}
,
					"snapshot" : 					{
						"filetype" : "C74Snapshot",
						"version" : 2,
						"minorversion" : 0,
						"name" : "snapshotlist",
						"origin" : "vst~",
						"type" : "list",
						"subtype" : "Undefined",
						"embed" : 1,
						"snapshot" : 						{
							"pluginname" : "Crystallizer.vstinfo",
							"plugindisplayname" : "Crystallizer",
							"pluginsavedname" : "C74_VST:/Crystallizer",
							"pluginsaveduniqueid" : 0,
							"version" : 1,
							"isbank" : 0,
							"isbase64" : 1,
							"sliderorder" : [  ],
							"slidervisibility" : [ 1, 1, 1, 1, 1, 1, 1, 1, 1, 1, 1, 1, 1, 1, 1, 1, 1, 1, 1, 1, 1, 1, 1, 1, 1, 1, 1 ],
							"blob" : "1248.CMlaKA....fQPMDZ....ALEcCIE...P.....APTYlEVcrQG..............................P.oWkDQGUDUfzCHCIWdyQWXrwVZ5Ulb6zfUEI0TI8jSfzCHzrSCSEjUEQzWBk0WVUjTSkzSNAROfTiKv3RL6z.TRUzTEQEH8.SLvDCLv.CLwDCLz.SLvDCLv.yL+PSWHYTT2rzOW0CQm8yV7vTQTgSOZgSZ1HFYLMzVSIDMVwiLOYUa8nDUlMULgwyOKU0WfQjLXQTLxvUQ7XjMg0TPQc1YkElL5.FL27yTIkyMD0jaC4jQHkFNlESNIolNlcUQbEVOAszRe0FWiQ0SwbCTdokTMIyW+HCRRolTgYkQTcURRESZBsiPJMlSm8SMp4lRRUDVZsURNAzUGQDMO8SQ13jY4nDOZAiVV8FQRI1L37ENC80OCoCTw.kOhQzPuIUN0.UMp4iRYgkPWgjWgoyYcEVZOMzXf4TQYslUxrVPTsSTQ8TOAgjYssjMZcELyPFQqozYmkUTs4VSWElZ2vzM7HlV17yQvbTQe8lR4jiSXQVPcc1MPM0XWwCTCITaq0FMAsDPyjETjUiZPokaD81N7fSPnETZO8EMD4CZuw1LDUEODsyPMkiYUwkV6zVMRAjZ5bFVPIUQ.ESRNIlURkTNLwVPZcjM2DEL+H1LKE0LwnkW9vTZZMUM8vyOkMjVNUEPccDTW4yQUcFVxnTOmUkLJMSXoEiYbQ0RasEVMokQfwULfEUYmoSWKUTa8DCP1zDNDIUTowTLRUERWI0SjAiZ8HyR17SLG4TNVckVGciVD8CRkAlRqolaNUzOVkiT97UR87CTZ8UWj0SX7bEWro0MWMyYkQDVjwCOe0CaUkVYSwlL+TDQ77lROADae40XGgzMdsCWvDUSPsUVpAkai41ahI1aIoyLjcCXtciaQMFNIQUYsUzLIUzTyz0UQMFU4P0X1TjPasiPuAVNcQjZyz1MjIFUwj0S3HyMU40PxHkPAUyWSI1YOIULDoSMxXiMT8UUsUCY83kY7TSSGkFPLAlL0j1XyDFReIDOEsia0DVV0HjVQwUT0zETwfTPOMVXeszX.k0T6fjMFkkRGQTXXUTSfkyYwTlUSgjMtQVNU0DTdIFS3.CPQoiWrADUxTCZx7FOccCVi8VPccySUgCW.ISXdMiTiUFMBc0QVsSURolQasDQ1jVYcEEWiAVUaUlVBEyN+vUXQAyQyzzVb80OaojaGkDTxfkL.IFa.giR5P1TcsjSB4jYo8lU8ryXQEDZA8CU7jyW.UTPKQTNvzzSogSaUkjSpkTRJ4zLZQDPDYFVwHUTWAiTL8kLxrjaXESXlklVAUiSpUzMsQCNuUkRy7EPa4FREUEV+DjMNIyOBkkQRYUNtcSaDUVYDkkVts1aAcVN.Y0XHwCZvrVQ4.CLkQkN6.VNJ01SoYkSvflaLQ1QKUCXkESWMoEWUISQDoDWPsSZLA1a9XDVHMjNWslT97UaAcVNWEFRsISVUASZCoDU03zYMEEZTwFaoAVX87iUQkzY0bUT3PDRVQCVfkjTaUyak8iZZQlSjcSMUYjVx31YiUiXIUjQqUkYS8zTWgiQuYkQEo0QoQCOlsSYi4yL5fCWE4kWT0FOFc1XYIEOoklS.ACLvHFWvrSC"
						}
,
						"snapshotlist" : 						{
							"current_snapshot" : 0,
							"entries" : [ 								{
									"filetype" : "C74Snapshot",
									"version" : 2,
									"minorversion" : 0,
									"name" : "Crystallizer",
									"origin" : "Crystallizer.vstinfo",
									"type" : "VST",
									"subtype" : "AudioEffect",
									"embed" : 0,
									"snapshot" : 									{
										"pluginname" : "Crystallizer.vstinfo",
										"plugindisplayname" : "Crystallizer",
										"pluginsavedname" : "C74_VST:/Crystallizer",
										"pluginsaveduniqueid" : 0,
										"version" : 1,
										"isbank" : 0,
										"isbase64" : 1,
										"sliderorder" : [  ],
										"slidervisibility" : [ 1, 1, 1, 1, 1, 1, 1, 1, 1, 1, 1, 1, 1, 1, 1, 1, 1, 1, 1, 1, 1, 1, 1, 1, 1, 1, 1 ],
										"blob" : "1248.CMlaKA....fQPMDZ....ALEcCIE...P.....APTYlEVcrQG..............................P.oWkDQGUDUfzCHCIWdyQWXrwVZ5Ulb6zfUEI0TI8jSfzCHzrSCSEjUEQzWBk0WVUjTSkzSNAROfTiKv3RL6z.TRUzTEQEH8.SLvDCLv.CLwDCLz.SLvDCLv.yL+PSWHYTT2rzOW0CQm8yV7vTQTgSOZgSZ1HFYLMzVSIDMVwiLOYUa8nDUlMULgwyOKU0WfQjLXQTLxvUQ7XjMg0TPQc1YkElL5.FL27yTIkyMD0jaC4jQHkFNlESNIolNlcUQbEVOAszRe0FWiQ0SwbCTdokTMIyW+HCRRolTgYkQTcURRESZBsiPJMlSm8SMp4lRRUDVZsURNAzUGQDMO8SQ13jY4nDOZAiVV8FQRI1L37ENC80OCoCTw.kOhQzPuIUN0.UMp4iRYgkPWgjWgoyYcEVZOMzXf4TQYslUxrVPTsSTQ8TOAgjYssjMZcELyPFQqozYmkUTs4VSWElZ2vzM7HlV17yQvbTQe8lR4jiSXQVPcc1MPM0XWwCTCITaq0FMAsDPyjETjUiZPokaD81N7fSPnETZO8EMD4CZuw1LDUEODsyPMkiYUwkV6zVMRAjZ5bFVPIUQ.ESRNIlURkTNLwVPZcjM2DEL+H1LKE0LwnkW9vTZZMUM8vyOkMjVNUEPccDTW4yQUcFVxnTOmUkLJMSXoEiYbQ0RasEVMokQfwULfEUYmoSWKUTa8DCP1zDNDIUTowTLRUERWI0SjAiZ8HyR17SLG4TNVckVGciVD8CRkAlRqolaNUzOVkiT97UR87CTZ8UWj0SX7bEWro0MWMyYkQDVjwCOe0CaUkVYSwlL+TDQ77lROADae40XGgzMdsCWvDUSPsUVpAkai41ahI1aIoyLjcCXtciaQMFNIQUYsUzLIUzTyz0UQMFU4P0X1TjPasiPuAVNcQjZyz1MjIFUwj0S3HyMU40PxHkPAUyWSI1YOIULDoSMxXiMT8UUsUCY83kY7TSSGkFPLAlL0j1XyDFReIDOEsia0DVV0HjVQwUT0zETwfTPOMVXeszX.k0T6fjMFkkRGQTXXUTSfkyYwTlUSgjMtQVNU0DTdIFS3.CPQoiWrADUxTCZx7FOccCVi8VPccySUgCW.ISXdMiTiUFMBc0QVsSURolQasDQ1jVYcEEWiAVUaUlVBEyN+vUXQAyQyzzVb80OaojaGkDTxfkL.IFa.giR5P1TcsjSB4jYo8lU8ryXQEDZA8CU7jyW.UTPKQTNvzzSogSaUkjSpkTRJ4zLZQDPDYFVwHUTWAiTL8kLxrjaXESXlklVAUiSpUzMsQCNuUkRy7EPa4FREUEV+DjMNIyOBkkQRYUNtcSaDUVYDkkVts1aAcVN.Y0XHwCZvrVQ4.CLkQkN6.VNJ01SoYkSvflaLQ1QKUCXkESWMoEWUISQDoDWPsSZLA1a9XDVHMjNWslT97UaAcVNWEFRsISVUASZCoDU03zYMEEZTwFaoAVX87iUQkzY0bUT3PDRVQCVfkjTaUyak8iZZQlSjcSMUYjVx31YiUiXIUjQqUkYS8zTWgiQuYkQEo0QoQCOlsSYi4yL5fCWE4kWT0FOFc1XYIEOoklS.ACLvHFWvrSC"
									}
,
									"fileref" : 									{
										"name" : "Crystallizer",
										"filename" : "Crystallizer.maxsnap",
										"filepath" : "~/Documents/Max 8/Projects/Touchscreencorpus2/data",
										"filepos" : -1,
										"snapshotfileid" : "13faaf6a1da2949c0f62589995e7f087"
									}

								}
 ]
						}

					}
,
					"text" : "vst~ C74_VST:/Crystallizer",
					"varname" : "vst~[1]",
					"viewvisibility" : 1
				}

			}
, 			{
				"box" : 				{
					"id" : "obj-7",
					"maxclass" : "slider",
					"numinlets" : 1,
					"numoutlets" : 1,
					"outlettype" : [ "" ],
					"parameter_enable" : 0,
					"patching_rect" : [ 199.0, 682.0, 20.0, 140.0 ]
				}

			}
, 			{
				"box" : 				{
					"basictuning" : 440,
					"data" : 					{
						"clips" : [ 							{
								"absolutepath" : "drone2.wav",
								"filename" : "drone2.wav",
								"filekind" : "audiofile",
								"id" : "u344001607",
								"selection" : [ 0.0, 1.0 ],
								"loop" : 1,
								"content_state" : 								{
									"loop" : 1
								}

							}
 ]
					}
,
					"followglobaltempo" : 0,
					"formantcorrection" : 0,
					"id" : "obj-3",
					"maxclass" : "playlist~",
					"mode" : "basic",
					"numinlets" : 1,
					"numoutlets" : 5,
					"originallength" : [ 0.0, "ticks" ],
					"originaltempo" : 120.0,
					"outlettype" : [ "signal", "signal", "signal", "", "dictionary" ],
					"parameter_enable" : 0,
					"patching_rect" : [ 1020.435915231704712, 461.692782521247864, 150.0, 30.0 ],
					"pitchcorrection" : 0,
					"quality" : "basic",
					"timestretch" : [ 0 ]
				}

			}
, 			{
				"box" : 				{
					"id" : "obj-19",
					"maxclass" : "newobj",
					"numinlets" : 1,
					"numoutlets" : 0,
					"patching_rect" : [ 973.525649905204773, 197.499991893768311, 39.0, 24.0 ],
					"text" : "print"
				}

			}
, 			{
				"box" : 				{
					"id" : "obj-2",
					"maxclass" : "newobj",
					"numinlets" : 1,
					"numoutlets" : 1,
					"outlettype" : [ "" ],
					"patching_rect" : [ 973.525649905204773, 138.769222319126129, 117.0, 24.0 ],
					"text" : "udpreceive 8000"
				}

			}
, 			{
				"box" : 				{
					"fontsize" : 20.0,
					"id" : "obj-92",
					"lastchannelcount" : 0,
					"maxclass" : "live.gain~",
					"numinlets" : 2,
					"numoutlets" : 5,
					"outlettype" : [ "signal", "signal", "", "float", "list" ],
					"parameter_enable" : 1,
					"patching_rect" : [ 855.455518007278442, 555.610840916633606, 112.0, 161.0 ],
					"saved_attribute_attributes" : 					{
						"valueof" : 						{
							"parameter_longname" : "live.gain~[4]",
							"parameter_mmax" : 6.0,
							"parameter_mmin" : -70.0,
							"parameter_modmode" : 3,
							"parameter_shortname" : "intro impact",
							"parameter_type" : 0,
							"parameter_unitstyle" : 4
						}

					}
,
					"varname" : "live.gain~[4]"
				}

			}
, 			{
				"box" : 				{
					"id" : "obj-88",
					"maxclass" : "newobj",
					"numinlets" : 1,
					"numoutlets" : 2,
					"outlettype" : [ "bang", "bang" ],
					"patching_rect" : [ 229.743598699569702, 48.589735865592957, 73.0, 24.0 ],
					"text" : "bangbang"
				}

			}
, 			{
				"box" : 				{
					"fontsize" : 20.0,
					"id" : "obj-58",
					"lastchannelcount" : 0,
					"maxclass" : "live.gain~",
					"numinlets" : 2,
					"numoutlets" : 5,
					"outlettype" : [ "signal", "signal", "", "float", "list" ],
					"parameter_enable" : 1,
					"patching_rect" : [ 1020.435915231704712, 555.610840916633606, 112.0, 161.0 ],
					"saved_attribute_attributes" : 					{
						"valueof" : 						{
							"parameter_longname" : "live.gain~[3]",
							"parameter_mmax" : 6.0,
							"parameter_mmin" : -70.0,
							"parameter_modmode" : 3,
							"parameter_shortname" : "drone",
							"parameter_type" : 0,
							"parameter_unitstyle" : 4
						}

					}
,
					"varname" : "live.gain~[3]"
				}

			}
, 			{
				"box" : 				{
					"id" : "obj-17",
					"maxclass" : "newobj",
					"numinlets" : 2,
					"numoutlets" : 5,
					"outlettype" : [ "", "", "", "", "" ],
					"patching_rect" : [ 804.205163478851318, 197.499991893768311, 113.0, 24.0 ],
					"text" : "multitouchParse"
				}

			}
, 			{
				"box" : 				{
					"id" : "obj-4",
					"maxclass" : "newobj",
					"numinlets" : 1,
					"numoutlets" : 1,
					"outlettype" : [ "" ],
					"patching_rect" : [ 804.205163478851318, 152.499991893768311, 117.0, 24.0 ],
					"text" : "udpreceive 7000"
				}

			}
, 			{
				"box" : 				{
					"id" : "obj-44",
					"maxclass" : "comment",
					"numinlets" : 1,
					"numoutlets" : 0,
					"patching_rect" : [ 1502.991468787193298, 1774.829087495803833, 150.0, 22.0 ],
					"presentation" : 1,
					"presentation_rect" : [ 1317.823505401611328, 197.058820247650146, 150.0, 22.0 ],
					"text" : "load sample folder"
				}

			}
, 			{
				"box" : 				{
					"id" : "obj-38",
					"maxclass" : "comment",
					"numinlets" : 1,
					"numoutlets" : 0,
					"patching_rect" : [ 1488.461554110050201, 1758.589771091938019, 150.0, 22.0 ],
					"presentation" : 1,
					"presentation_rect" : [ 540.217440247535706, 191.304365158081055, 150.0, 22.0 ],
					"text" : "load sample folder"
				}

			}
, 			{
				"box" : 				{
					"id" : "obj-6",
					"maxclass" : "newobj",
					"numinlets" : 2,
					"numoutlets" : 4,
					"outlettype" : [ "signal", "signal", "list", "list" ],
					"patching_rect" : [ 25.836750030517578, 1301.999860286712646, 103.0, 24.0 ],
					"text" : "omx.peaklim~"
				}

			}
, 			{
				"box" : 				{
					"id" : "obj-118",
					"maxclass" : "newobj",
					"numinlets" : 1,
					"numoutlets" : 1,
					"outlettype" : [ "bang" ],
					"patching_rect" : [ 25.836750030517578, 150.148434042930603, 27.282051205635071, 24.0 ],
					"text" : "t b"
				}

			}
, 			{
				"box" : 				{
					"id" : "obj-116",
					"maxclass" : "newobj",
					"numinlets" : 1,
					"numoutlets" : 1,
					"outlettype" : [ "bang" ],
					"patching_rect" : [ 229.743598699569702, 13.025633454322815, 73.128204822540283, 24.0 ],
					"text" : "loadbang"
				}

			}
, 			{
				"box" : 				{
					"id" : "obj-113",
					"maxclass" : "message",
					"numinlets" : 2,
					"numoutlets" : 1,
					"outlettype" : [ "" ],
					"patching_rect" : [ 229.743598699569702, 81.358967781066895, 474.0, 24.0 ],
					"presentation" : 1,
					"presentation_linecount" : 3,
					"presentation_rect" : [ 469.56525993347168, 164.0, 259.0, 56.0 ],
					"text" : "\"D:Final Project Stufff/Max/Touchscreensynth/Sample Folders/Tactility\""
				}

			}
, 			{
				"box" : 				{
					"id" : "obj-10",
					"maxclass" : "comment",
					"numinlets" : 1,
					"numoutlets" : 0,
					"patching_rect" : [ 76.410267353057861, 197.499991893768311, 117.94871985912323, 22.0 ],
					"presentation" : 1,
					"presentation_rect" : [ 76.0, 175.0, 150.0, 22.0 ],
					"text" : "generate slices"
				}

			}
, 			{
				"box" : 				{
					"id" : "obj-8",
					"maxclass" : "button",
					"numinlets" : 1,
					"numoutlets" : 1,
					"outlettype" : [ "bang" ],
					"parameter_enable" : 0,
					"patching_rect" : [ 25.836750030517578, 187.999991893768311, 41.0, 41.0 ],
					"presentation" : 1,
					"presentation_rect" : [ 22.0, 165.5, 41.0, 41.0 ]
				}

			}
, 			{
				"box" : 				{
					"bgmode" : 0,
					"border" : 0,
					"clickthrough" : 0,
					"enablehscroll" : 0,
					"enablevscroll" : 0,
					"id" : "obj-29",
					"lockeddragscroll" : 0,
					"lockedsize" : 0,
					"maxclass" : "bpatcher",
					"name" : "corpus_performance.maxpat",
					"numinlets" : 3,
					"numoutlets" : 2,
					"offset" : [ 0.0, 0.0 ],
					"outlettype" : [ "signal", "signal" ],
					"patching_rect" : [ 25.836750030517578, 230.999991893768311, 797.36841344833374, 475.438591957092285 ],
					"presentation" : 1,
					"presentation_rect" : [ 22.0, 240.0, 797.36841344833374, 475.438591957092285 ],
					"varname" : "corpus_performance[1]",
					"viewvisibility" : 1
				}

			}
, 			{
				"box" : 				{
					"id" : "obj-15",
					"lastchannelcount" : 0,
					"maxclass" : "live.gain~",
					"numinlets" : 2,
					"numoutlets" : 5,
					"outlettype" : [ "signal", "signal", "", "float", "list" ],
					"parameter_enable" : 1,
					"patching_rect" : [ 25.836750030517578, 782.307553052902222, 120.0, 135.0 ],
					"saved_attribute_attributes" : 					{
						"valueof" : 						{
							"parameter_longname" : "live.gain~",
							"parameter_mmax" : 6.0,
							"parameter_mmin" : -70.0,
							"parameter_modmode" : 3,
							"parameter_shortname" : "live.gain~",
							"parameter_type" : 0,
							"parameter_unitstyle" : 4
						}

					}
,
					"varname" : "live.gain~"
				}

			}
, 			{
				"box" : 				{
					"id" : "obj-14",
					"maxclass" : "ezdac~",
					"numinlets" : 2,
					"numoutlets" : 0,
					"patching_rect" : [ 25.836750030517578, 1357.538324117660522, 120.0, 120.0 ],
					"presentation" : 1,
					"presentation_rect" : [ 559.782659411430359, 10.989754438400269, 127.0, 127.0 ]
				}

			}
, 			{
				"box" : 				{
					"id" : "obj-56",
					"maxclass" : "panel",
					"numinlets" : 1,
					"numoutlets" : 0,
					"patching_rect" : [ 1497.863263607025146, 1731.239343464374542, 128.0, 128.0 ],
					"presentation" : 1,
					"presentation_rect" : [ 14.562742590904236, 154.102295160293579, 789.176455497741699, 73.913050174713135 ]
				}

			}
, 			{
				"box" : 				{
					"id" : "obj-57",
					"maxclass" : "panel",
					"numinlets" : 1,
					"numoutlets" : 0,
					"patching_rect" : [ 1356.333333730697632, 1731.239343464374542, 128.0, 128.0 ],
					"presentation" : 1,
					"presentation_rect" : [ 809.087039709091187, 154.102295160293579, 806.521812200546265, 73.913050174713135 ]
				}

			}
, 			{
				"box" : 				{
					"angle" : 270.0,
					"grad1" : [ 0.490196078431373, 0.556862745098039, 0.541176470588235, 1.0 ],
					"grad2" : [ 0.490196078431373, 0.556862745098039, 0.541176470588235, 1.0 ],
					"id" : "obj-45",
					"maxclass" : "panel",
					"mode" : 1,
					"numinlets" : 1,
					"numoutlets" : 0,
					"patching_rect" : [ 1213.333333730697632, 1728.000006794929504, 128.0, 128.0 ],
					"presentation" : 1,
					"presentation_rect" : [ 389.130470037460327, 1.207144856452942, 796.739202618598938, 148.913056969642639 ],
					"proportion" : 0.5
				}

			}
 ],
		"lines" : [ 			{
				"patchline" : 				{
					"destination" : [ "obj-6", 0 ],
					"source" : [ "obj-1", 0 ]
				}

			}
, 			{
				"patchline" : 				{
					"destination" : [ "obj-118", 0 ],
					"midpoints" : [ 239.243598699569702, 135.080660171624913, 35.336750030517578, 135.080660171624913 ],
					"order" : 1,
					"source" : [ "obj-113", 0 ]
				}

			}
, 			{
				"patchline" : 				{
					"destination" : [ "obj-29", 1 ],
					"midpoints" : [ 239.243598699569702, 225.283135652542114, 424.520956754684448, 225.283135652542114 ],
					"order" : 0,
					"source" : [ "obj-113", 0 ]
				}

			}
, 			{
				"patchline" : 				{
					"destination" : [ "obj-88", 0 ],
					"source" : [ "obj-116", 0 ]
				}

			}
, 			{
				"patchline" : 				{
					"destination" : [ "obj-8", 0 ],
					"source" : [ "obj-118", 0 ]
				}

			}
, 			{
				"patchline" : 				{
					"destination" : [ "obj-1", 1 ],
					"order" : 1,
					"source" : [ "obj-12", 0 ]
				}

			}
, 			{
				"patchline" : 				{
					"destination" : [ "obj-5", 1 ],
					"order" : 0,
					"source" : [ "obj-12", 0 ]
				}

			}
, 			{
				"patchline" : 				{
					"destination" : [ "obj-9", 1 ],
					"midpoints" : [ 60.586750030517578, 1002.0, 565.5, 1002.0 ],
					"source" : [ "obj-15", 1 ]
				}

			}
, 			{
				"patchline" : 				{
					"destination" : [ "obj-9", 0 ],
					"source" : [ "obj-15", 0 ]
				}

			}
, 			{
				"patchline" : 				{
					"destination" : [ "obj-1", 2 ],
					"order" : 1,
					"source" : [ "obj-16", 0 ]
				}

			}
, 			{
				"patchline" : 				{
					"destination" : [ "obj-5", 2 ],
					"order" : 0,
					"source" : [ "obj-16", 0 ]
				}

			}
, 			{
				"patchline" : 				{
					"destination" : [ "obj-29", 2 ],
					"source" : [ "obj-17", 0 ]
				}

			}
, 			{
				"patchline" : 				{
					"destination" : [ "obj-17", 1 ],
					"midpoints" : [ 983.025649905204773, 187.346145153045654, 907.705163478851318, 187.346145153045654 ],
					"order" : 1,
					"source" : [ "obj-2", 0 ]
				}

			}
, 			{
				"patchline" : 				{
					"destination" : [ "obj-19", 0 ],
					"midpoints" : [ 983.025649905204773, 179.884606838226318, 983.025649905204773, 179.884606838226318 ],
					"order" : 0,
					"source" : [ "obj-2", 0 ]
				}

			}
, 			{
				"patchline" : 				{
					"destination" : [ "obj-1", 3 ],
					"order" : 1,
					"source" : [ "obj-20", 0 ]
				}

			}
, 			{
				"patchline" : 				{
					"destination" : [ "obj-5", 3 ],
					"order" : 0,
					"source" : [ "obj-20", 0 ]
				}

			}
, 			{
				"patchline" : 				{
					"destination" : [ "obj-1", 4 ],
					"order" : 1,
					"source" : [ "obj-22", 0 ]
				}

			}
, 			{
				"patchline" : 				{
					"destination" : [ "obj-5", 4 ],
					"order" : 0,
					"source" : [ "obj-22", 0 ]
				}

			}
, 			{
				"patchline" : 				{
					"destination" : [ "obj-1", 0 ],
					"source" : [ "obj-24", 0 ]
				}

			}
, 			{
				"patchline" : 				{
					"destination" : [ "obj-5", 0 ],
					"source" : [ "obj-26", 0 ]
				}

			}
, 			{
				"patchline" : 				{
					"destination" : [ "obj-6", 0 ],
					"source" : [ "obj-27", 0 ]
				}

			}
, 			{
				"patchline" : 				{
					"destination" : [ "obj-6", 1 ],
					"source" : [ "obj-28", 0 ]
				}

			}
, 			{
				"patchline" : 				{
					"destination" : [ "obj-15", 1 ],
					"midpoints" : [ 813.705163478851318, 753.000007152557373, 136.336750030517578, 753.000007152557373 ],
					"source" : [ "obj-29", 1 ]
				}

			}
, 			{
				"patchline" : 				{
					"destination" : [ "obj-15", 0 ],
					"midpoints" : [ 35.336750030517578, 736.333341121673584, 35.336750030517578, 736.333341121673584 ],
					"source" : [ "obj-29", 0 ]
				}

			}
, 			{
				"patchline" : 				{
					"destination" : [ "obj-58", 1 ],
					"midpoints" : [ 1062.685915231704712, 540.000006794929504, 1122.935915231704712, 540.000006794929504 ],
					"source" : [ "obj-3", 1 ]
				}

			}
, 			{
				"patchline" : 				{
					"destination" : [ "obj-58", 0 ],
					"source" : [ "obj-3", 0 ]
				}

			}
, 			{
				"patchline" : 				{
					"destination" : [ "obj-27", 4 ],
					"order" : 1,
					"source" : [ "obj-30", 0 ]
				}

			}
, 			{
				"patchline" : 				{
					"destination" : [ "obj-28", 4 ],
					"order" : 0,
					"source" : [ "obj-30", 0 ]
				}

			}
, 			{
				"patchline" : 				{
					"destination" : [ "obj-27", 3 ],
					"order" : 1,
					"source" : [ "obj-31", 0 ]
				}

			}
, 			{
				"patchline" : 				{
					"destination" : [ "obj-28", 3 ],
					"order" : 0,
					"source" : [ "obj-31", 0 ]
				}

			}
, 			{
				"patchline" : 				{
					"destination" : [ "obj-27", 2 ],
					"order" : 1,
					"source" : [ "obj-32", 0 ]
				}

			}
, 			{
				"patchline" : 				{
					"destination" : [ "obj-28", 2 ],
					"order" : 0,
					"source" : [ "obj-32", 0 ]
				}

			}
, 			{
				"patchline" : 				{
					"destination" : [ "obj-27", 1 ],
					"order" : 1,
					"source" : [ "obj-33", 0 ]
				}

			}
, 			{
				"patchline" : 				{
					"destination" : [ "obj-28", 1 ],
					"order" : 0,
					"source" : [ "obj-33", 0 ]
				}

			}
, 			{
				"patchline" : 				{
					"destination" : [ "obj-17", 0 ],
					"source" : [ "obj-4", 0 ]
				}

			}
, 			{
				"patchline" : 				{
					"destination" : [ "obj-6", 1 ],
					"source" : [ "obj-5", 0 ]
				}

			}
, 			{
				"patchline" : 				{
					"destination" : [ "obj-24", 0 ],
					"source" : [ "obj-58", 0 ]
				}

			}
, 			{
				"patchline" : 				{
					"destination" : [ "obj-26", 0 ],
					"source" : [ "obj-58", 1 ]
				}

			}
, 			{
				"patchline" : 				{
					"destination" : [ "obj-14", 1 ],
					"midpoints" : [ 63.336750030517578, 1343.512682557106018, 136.336750030517578, 1343.512682557106018 ],
					"source" : [ "obj-6", 1 ]
				}

			}
, 			{
				"patchline" : 				{
					"destination" : [ "obj-14", 0 ],
					"source" : [ "obj-6", 0 ]
				}

			}
, 			{
				"patchline" : 				{
					"destination" : [ "obj-29", 0 ],
					"source" : [ "obj-8", 0 ]
				}

			}
, 			{
				"patchline" : 				{
					"destination" : [ "obj-113", 0 ],
					"source" : [ "obj-88", 0 ]
				}

			}
, 			{
				"patchline" : 				{
					"destination" : [ "obj-27", 0 ],
					"source" : [ "obj-9", 0 ]
				}

			}
, 			{
				"patchline" : 				{
					"destination" : [ "obj-28", 0 ],
					"source" : [ "obj-9", 1 ]
				}

			}
 ],
		"parameters" : 		{
			"obj-15" : [ "live.gain~", "live.gain~", 0 ],
			"obj-58" : [ "live.gain~[3]", "drone", 0 ],
			"obj-9" : [ "vst~[1]", "vst~[1]", 0 ],
			"obj-92" : [ "live.gain~[4]", "intro impact", 0 ],
			"parameterbanks" : 			{

			}
,
			"inherited_shortname" : 1
		}
,
		"dependency_cache" : [ 			{
				"name" : "Crystallizer.maxsnap",
				"bootpath" : "~/Documents/Max 8/Projects/Touchscreencorpus2/data",
				"patcherrelativepath" : "../data",
				"type" : "mx@s",
				"implicit" : 1
			}
, 			{
				"name" : "corpus_performance.maxpat",
				"bootpath" : "~/Documents/Max 8/Projects/Touchscreencorpus2/patchers",
				"patcherrelativepath" : ".",
				"type" : "JSON",
				"implicit" : 1
			}
, 			{
				"name" : "drone2.wav",
				"bootpath" : "D:/Final Project Stufff",
				"type" : "WAVE",
				"implicit" : 1
			}
, 			{
				"name" : "fluid.audiofilesin.maxpat",
				"bootpath" : "~/Documents/Max 8/Projects/Touchscreencorpus2/patchers",
				"patcherrelativepath" : ".",
				"type" : "JSON",
				"implicit" : 1
			}
, 			{
				"name" : "fluid.buf2list.mxe64",
				"type" : "mx64"
			}
, 			{
				"name" : "fluid.bufcompose~.mxe64",
				"type" : "mx64"
			}
, 			{
				"name" : "fluid.bufloudness~.mxe64",
				"type" : "mx64"
			}
, 			{
				"name" : "fluid.bufonsetslice~.mxe64",
				"type" : "mx64"
			}
, 			{
				"name" : "fluid.bufspectralshape~.mxe64",
				"type" : "mx64"
			}
, 			{
				"name" : "fluid.bufstats~.mxe64",
				"type" : "mx64"
			}
, 			{
				"name" : "fluid.concataudiofiles.maxpat",
				"bootpath" : "~/Documents/Max 8/Projects/Touchscreencorpus2/patchers",
				"patcherrelativepath" : ".",
				"type" : "JSON",
				"implicit" : 1
			}
, 			{
				"name" : "fluid.libmanipulation.mxe64",
				"type" : "mx64"
			}
, 			{
				"name" : "fluid.list2buf.mxe64",
				"type" : "mx64"
			}
, 			{
				"name" : "fluid.plotter.js",
				"bootpath" : "~/Documents/Max 8/Projects/Touchscreencorpus2/code",
				"patcherrelativepath" : "../code",
				"type" : "TEXT",
				"implicit" : 1
			}
, 			{
				"name" : "fluid.waveform~.js",
				"bootpath" : "~/Documents/Max 8/Projects/Touchscreencorpus2/code",
				"patcherrelativepath" : "../code",
				"type" : "TEXT",
				"implicit" : 1
			}
, 			{
				"name" : "multitouchParse.maxpat",
				"bootpath" : "~/Documents/Max 8/Projects/Touchscreencorpus2/patchers",
				"patcherrelativepath" : ".",
				"type" : "JSON",
				"implicit" : 1
			}
, 			{
				"name" : "o.route.mxe64",
				"type" : "mx64"
			}
, 			{
				"name" : "yafr2.maxpat",
				"bootpath" : "~/AppData/Roaming/Cycling '74/Max 8/examples/effects/reverb/lib",
				"patcherrelativepath" : "../../../../../AppData/Roaming/Cycling '74/Max 8/examples/effects/reverb/lib",
				"type" : "JSON",
				"implicit" : 1
			}
 ],
		"autosave" : 0,
		"styles" : [ 			{
				"name" : "Audiomix",
				"default" : 				{
					"bgfillcolor" : 					{
						"angle" : 270.0,
						"color" : [ 0.290196, 0.309804, 0.301961, 1.0 ],
						"color1" : [ 0.376471, 0.384314, 0.4, 1.0 ],
						"color2" : [ 0.290196, 0.309804, 0.301961, 1.0 ],
						"proportion" : 0.39,
						"type" : "gradient"
					}

				}
,
				"parentstyle" : "",
				"multi" : 0
			}
, 			{
				"name" : "default-1",
				"parentstyle" : "",
				"multi" : 0
			}
, 			{
				"name" : "jpatcher001",
				"default" : 				{
					"accentcolor" : [ 0.482352941176471, 0.482352941176471, 0.482352941176471, 1.0 ],
					"bgcolor" : [ 0.109803921568627, 0.109803921568627, 0.109803921568627, 1.0 ],
					"bgfillcolor" : 					{
						"angle" : 270.0,
						"autogradient" : 0.0,
						"color" : [ 0.407843137254902, 0.396078431372549, 0.396078431372549, 1.0 ],
						"color1" : [ 0.407843137254902, 0.396078431372549, 0.396078431372549, 1.0 ],
						"color2" : [ 0.2, 0.2, 0.2, 1.0 ],
						"proportion" : 0.5,
						"type" : "gradient"
					}
,
					"color" : [ 0.694117647058824, 0.784313725490196, 0.796078431372549, 1.0 ],
					"editing_bgcolor" : [ 0.223529411764706, 0.223529411764706, 0.223529411764706, 1.0 ],
					"fontname" : [ "Apple SD Gothic Neo" ],
					"fontsize" : [ 13.0 ],
					"locked_bgcolor" : [ 0.223529411764706, 0.223529411764706, 0.223529411764706, 1.0 ],
					"patchlinecolor" : [ 0.0, 0.0, 0.0, 1.0 ],
					"selectioncolor" : [ 0.443137254901961, 0.76078431372549, 0.145098039215686, 1.0 ]
				}
,
				"parentstyle" : "default-1",
				"multi" : 0
			}
, 			{
				"name" : "matrix",
				"default" : 				{
					"color" : [ 0.717647058823529, 0.72156862745098, 0.72156862745098, 1.0 ],
					"editing_bgcolor" : [ 0.274509803921569, 0.27843137254902, 0.27843137254902, 0.74 ],
					"fontname" : [ "Apple SD Gothic Neo" ],
					"fontsize" : [ 13.0 ],
					"locked_bgcolor" : [ 0.309803921568627, 0.313725490196078, 0.313725490196078, 0.74 ],
					"patchlinecolor" : [ 0.105882352941176, 1.0, 0.611764705882353, 1.0 ],
					"textcolor" : [ 1.0, 1.0, 1.0, 1.0 ],
					"textcolor_inverse" : [ 0.980392156862745, 0.980392156862745, 0.980392156862745, 1.0 ]
				}
,
				"parentstyle" : "",
				"multi" : 0
			}
 ]
	}

}
